<svg xmlns="http://www.w3.org/2000/svg" width="512" height="512" style="overflow: visible;" viewBox="0 0 512 512"
  data-svgdocument="" id="_EvqZtYRDSazfkhAsdo-vZ" class="fl-svgdocument" x="0" y="0"
  xmlns:xlink="http://www.w3.org/1999/xlink">
  <defs id="_fQmfCkIfpOIJRdrhrH6uK"
    transform="matrix(1.4188274145126343, 0, 0, 1.4188274145126343, -53.75090789794922, 176.54794311523438)"
    data-uid="o_ej4hmlif5_5"></defs>
  <path id="_tu7HYPu4gJOBtwExni1uX" fill="#1a202c"
    transform="matrix(0.9938638210296631, 0, 0, 0.666642458060378, 292.9766540527344, 197.11320098294803)"
    data-type="rect" data-x="-0.013" data-y="0" data-width="176.769" data-height="176.769"
    d="M-0.013,0H176.756,V176.769,H-0.013,Z" data-uid="o_ej4hmlif5_6"></path>
  <path text="FILM" text-anchor="end" font-size="100" letter-spacing="0" side="left" offset="1" dx="0" dy="0"
    space="preserve" href="" font-family="Raleway" font-scale="contain"
    transform="matrix(0.48833757638931274, 0, 0, 0.48833757638931274, 436.8914592205647, 272.9615169687408)" x="0" y="0"
    fill="#319795" data-fl-textpath="" id="_kgrGoEl80OA2fNhtLVFXi" data-uid="o_ej4hmlif5_7"
    d="M-213.79999999999998 0L-220.79999999999998 0L-220.79999999999998-71L-174.2-71L-174.2-64.8L-213.79999999999998-64.8L-213.79999999999998-38.7L-180.39999999999998-38.7L-180.39999999999998-32.9L-213.79999999999998-32.9L-213.79999999999998 0ZM-154.89999999999998 0L-161.89999999999998 0L-161.89999999999998-71L-154.89999999999998-71L-154.89999999999998 0ZM-89.09999999999997 0L-137.09999999999997 0L-137.09999999999997-71L-130.09999999999997-71L-130.09999999999997-6.2L-89.09999999999997-6.2L-89.09999999999997 0ZM-8.899999999999963 0L-15.899999999999963 0L-15.899999999999963-58.3L-41.79999999999996-13.2L-45.89999999999996-13.2L-71.79999999999995-58.3L-71.79999999999995 0L-78.79999999999995 0L-78.79999999999995-71L-71.59999999999997-71L-43.89999999999996-22.4L-15.999999999999957-71L-8.899999999999963-71L-8.899999999999963 0Z">
  </path>
  <path text="WHISTLE" text-anchor="start" font-size="100" letter-spacing="0" side="left" offset="0" dx="0" dy="0"
    space="preserve" href="" font-family="Fugaz One" font-scale="contain"
    transform="matrix(0.47801488042096707, 0, 0, 0.47801488042096707, 59.55851193814592, 273.04122939291824)" x="0"
    y="0" fill="#319795" data-fl-textpath="" id="_t267fz43MnLYeMl49mrX4" data-uid="o_ej4hmlif5_8"
    d="M 47.7-72L 67.2-72L 65.5-17.5L 67.8-17.5L 85.2-72L 104.8-72L 80.1 0L 50.1 0L 52.8-46.1L 39.4 0L 9.4 0L 10.1-72L 29.7-72L 27.9-17.5L 30.2-17.5L 47.7-72ZM 152.1-72L 170.1-72L 157.5 0L 139.4 0L 144-26L 124.5-26L 120 0L 101.9 0L 114.6-72L 132.6-72L 127.2-41.6L 146.7-41.6L 152.1-72ZM 184.29999999999998-72L 202.29999999999998-72L 189.7 0L 171.6 0L 184.29999999999998-72ZM 222.89999999999998-20.5L 222.89999999999998-20.5Q 222.89999999999998-13.6  232.84999999999997-13.6Q 242.79999999999998-13.6  242.79999999999998-19.8L 242.79999999999998-19.8Q 242.79999999999998-23.1  239.39999999999998-25.2Q 235.99999999999997-27.3  231.14999999999998-28.7Q 226.29999999999998-30.1  221.45-31.95Q 216.59999999999997-33.8  213.2-37.75Q 209.79999999999998-41.7  209.79999999999998-47.6L 209.79999999999998-47.6Q 209.79999999999998-72.7  242.09999999999997-72.7L 242.09999999999997-72.7Q 253.89999999999998-72.7  259.95-68.25Q 266-63.8  266-55.9L 266-55.9Q 266-53  265.25-50.35Q 264.5-47.7  263.7-46.6L 263.7-46.6L 262.9-45.4L 245.2-45.4Q 247.39999999999998-47.7  247.39999999999998-51.2L 247.39999999999998-51.2Q 247.39999999999998-57.7  238.89999999999998-57.7L 238.89999999999998-57.7Q 228.2-57.7  228.2-50.9L 228.2-50.9Q 228.2-47.5  231.59999999999997-45.5Q 234.99999999999997-43.5  239.84999999999997-42.35Q 244.7-41.2  249.59999999999997-39.5Q 254.49999999999997-37.8  257.9-33.85Q 261.29999999999995-29.9  261.29999999999995-23.6L 261.29999999999995-23.6Q 261.29999999999995-10.9  253.7-4.75Q 246.09999999999997 1.4  230.29999999999998 1.4Q 214.49999999999997 1.4  208.7-4.2L 208.7-4.2Q 204.39999999999998-8.4  204.39999999999998-15.8L 204.39999999999998-15.8Q 204.39999999999998-18.6  204.99999999999997-21.9L 204.99999999999997-21.9L 205.29999999999998-23.5L 223.29999999999998-23.5L 223.09999999999997-22.3Q 222.89999999999998-21.3  222.89999999999998-20.5ZM 342.7-72L 339.9-56.4L 315.3-56.4L 305.4 0L 287.3 0L 297.2-56.4L 272.5-56.4L 275.3-72L 342.7-72ZM 386.6-15.6L 383.8 0L 338.2 0L 350.90000000000003-72L 368.90000000000003-72L 359-15.6L 386.6-15.6ZM 444.8-15.6L 442.00000000000006 0L 391.8 0L 404.50000000000006-72L 454.70000000000005-72L 451.90000000000003-56.4L 419.70000000000005-56.4L 417.40000000000003-42.9L 444.00000000000006-42.9L 441.20000000000005-27.3L 414.6-27.3L 412.6-15.6L 444.8-15.6Z">
  </path>
  <path id="_i-P5Eg4_6TvtwfSdK4Ta9"
    d="M167.742,39.885v94.5H9v-94.5H167.742 M176.742,30.885H0v112.5h176.742V30.885L176.742,30.885z" fill="#1a202c"
    transform="matrix(1.3859961032867432, 0, 0, 1.0474820137023926, 48.00000444488569, 164.7276584921192)"
    data-uid="o_ej4hmlif5_9"></path>
</svg>
